<svg xmlns="http://www.w3.org/2000/svg" xml:space="preserve" width="770" height="137.58842" viewBox="0 0 770 137.58842"><path fill="#0766ff" d="M677.278 135.304h25.62V93.85l35.752 41.453H770L728.38 87.53l35.553-41.424h-28.528l-32.507 38.18V0l-25.62 3.358ZM618.19 43.822c-28.444 0-48.196 19.131-48.196 46.87 0 27.737 19.752 46.869 48.196 46.869 28.443 0 48.195-19.132 48.195-46.87 0-27.738-19.752-46.869-48.195-46.869Zm0 71.898c-13.178 0-22.207-10.186-22.207-25.029 0-14.842 9.029-25.029 22.207-25.029 13.177 0 22.207 10.187 22.207 25.03 0 14.842-9.03 25.028-22.207 25.028ZM514.067 43.822c-28.443 0-48.196 19.131-48.196 46.87 0 27.737 19.753 46.869 48.196 46.869 28.443 0 48.195-19.132 48.195-46.87 0-27.738-19.752-46.869-48.195-46.869Zm0 71.898c-13.178 0-22.207-10.186-22.207-25.029 0-14.842 9.03-25.029 22.207-25.029 13.178 0 22.207 10.187 22.207 25.03 0 14.842-9.03 25.028-22.207 25.028ZM416.01 43.822c-11.85 0-21.67 4.656-27.822 13.177V0l-25.65 3.33v131.945h22.744l.451-13.77c6.067 10.271 16.93 16.056 30.277 16.056 24.325 0 42.13-19.753 42.13-46.87 0-27.117-17.721-46.869-42.13-46.869Zm-6.066 71.898c-13.178 0-22.207-10.186-22.207-25.029 0-14.842 9.03-25.029 22.207-25.029 13.177 0 22.207 10.187 22.207 25.03 0 14.842-9.03 25.028-22.207 25.028Zm-98.762 1.157c-13.6 0-23.363-6.32-26.693-17.212h63.122c.622-3.33 1.045-7.28 1.045-9.933 0-28.697-16.057-45.91-43.032-45.91-27.23 0-46.08 19.131-46.08 46.87 0 28.104 19.753 46.869 49.071 46.869 15.18 0 29.939-5.08 39.166-13.516l-9.227-16.253c-8.945 6.179-17.721 9.085-27.372 9.085Zm-5.728-53.134c11.852 0 19.414 7.196 19.414 18.342v.085h-40.915c2.455-11.823 10.101-18.427 21.501-18.427Zm-86.035 73.845c13.263 0 26.243-5.079 35.385-13.882l-10.018-16.846c-7.11 5.53-15.18 8.521-22.827 8.521-14.222 0-23.703-9.932-23.703-24.662 0-14.73 9.481-24.662 23.703-24.662 7.026 0 14.673 2.54 20.88 7.027l10.187-17.214c-8.24-7.449-20.993-12.02-33.635-12.02-27.822 0-47.49 19.414-47.49 46.87.028 27.37 19.695 46.868 47.518 46.868Zm-81.464-91.481-.45 13.884c-6.068-10.356-16.932-16.141-30.278-16.141-24.409 0-42.13 19.753-42.13 46.87 0 27.117 17.834 46.868 42.13 46.868 13.346 0 24.238-5.784 30.277-16.055l.451 13.77h22.743V46.107Zm-24.662 69.613c-13.177 0-22.207-10.186-22.207-25.029 0-14.842 9.03-25.029 22.207-25.029 13.178 0 22.207 10.187 22.207 25.03 0 14.842-9.058 25.028-22.207 25.028ZM63.179 46.275H40.125v-7.62c0-11.4 4.459-15.773 16.028-15.773 3.583 0 6.49.085 8.155.254V3.582c-3.161-.876-10.864-1.75-15.323-1.75-23.561 0-34.425 11.117-34.425 35.13v9.284H0v21.559h14.56v67.468h25.593v-67.44h19.076Z"/></svg>